<svg width="28" height="29" viewBox="0 0 28 29" fill="none" xmlns="http://www.w3.org/2000/svg">
<path d="M3.50056 25.2409L3.50056 25.2406C3.59025 22.3086 4.76423 19.8923 6.99376 18.0318C8.2416 16.9904 9.67872 16.3667 11.2549 16.1024L3.50056 25.2409ZM3.50056 25.2409C3.48994 25.5935 3.55892 25.9622 3.82605 26.236C4.0927 26.5094 4.45739 26.5862 4.80133 26.5862H4.8193H4.83727H4.85524H4.87321H4.89118H4.90915H4.92712H4.9451H4.96307H4.98104H4.99901H5.01698H5.03495H5.05292H5.07089H5.08886H5.10684H5.12481H5.14278H5.16075H5.17872H5.19669H5.21466H5.23263H5.2506H5.26857H5.28654H5.30452H5.32249H5.34046H5.35843H5.3764H5.39437H5.41234H5.43031H5.44828H5.46625H5.48422H5.50219H5.52017H5.53814H5.55611H5.57408H5.59205H5.61002H5.62799H5.64596H5.66393H5.6819H5.69987H5.71784H5.73581H5.75378H5.77176H5.78973H5.8077H5.82567H5.84364H5.86161H5.87958H5.89755H5.91552H5.93349H5.95146H5.96943H5.9874H6.00537H6.02334H6.04131H6.05928H6.07726H6.09523H6.1132H6.13117H6.14914H6.16711H6.18508H6.20305H6.22102H6.23899H6.25696H6.27493H6.2929H6.31087H6.32884H6.34681H6.36478H6.38275H6.40072H6.41869H6.43666H6.45463H6.4726H6.49058H6.50855H6.52652H6.54449H6.56246H6.58043H6.5984H6.61637H6.63434H6.65231H6.67028H6.68825H6.70622H6.72419H6.74216H6.76013H6.7781H6.79607H6.81404H6.83201H6.84998H6.86795H6.88592H6.90389H6.92186H6.93983H6.9578H6.97577H6.99374H7.01171H7.02968H7.04765H7.06562H7.08359H7.10156H7.11953H7.1375H7.15547H7.17344H7.19141H7.20939H7.22736H7.24533H7.2633H7.28127H7.29924H7.31721H7.33518H7.35315H7.37112H7.38909H7.40706H7.42503H7.443H7.46097H7.47894H7.49691H7.51488H7.53285H7.55082H7.56879H7.58676H7.60473H7.6227H7.64067H7.65864H7.67661H7.69458H7.71255H7.73052H7.74849H7.76646H7.78443H7.8024H7.82037H7.83834H7.85631H7.87428H7.89225H7.91022H7.92819H7.94616H7.96413H7.9821H8.00007H8.01804H8.03601H8.05398H8.07195H8.08992H8.10789H8.12586H8.14383H8.1618H8.17977H8.19774H8.21571H8.23368H8.25165H8.26962H8.28759H8.30556H8.32353H8.3415H8.35947H8.37744H8.39541H8.41338H8.43135H8.44932H8.46729H8.48526H8.50322H8.52119H8.53916H8.55713H8.5751H8.59307H8.61104H8.62901H8.64698H8.66495H8.68292H8.70089H8.71886H8.73683H8.7548H8.77277H8.79074H8.80871H8.82668H8.84465H8.86262H8.88059H8.89856H8.91653H8.9345H8.95247H8.97044H8.98841H9.00638H9.02435H9.04232H9.06029H9.07826H9.09623H9.1142H9.13217H9.15014H9.16811H9.18608H9.20405H9.22202H9.23999H9.25796H9.27593H9.2939H9.31187H9.32984H9.34781H9.36578H9.38375H9.40172H9.41969H9.43766H9.45563H9.4736H9.49157H9.50954H9.52751H9.54548H9.56345H9.58142H9.59939H9.61736H9.63533H9.6533H9.67127H9.68924H9.70721H9.72517H9.74314H9.76111H9.77908H9.79705H9.81502H9.83299H9.85096H9.86893H9.8869H9.90487H9.92284H9.94081H9.95878H9.97675H9.99472H10.0127H10.0307H10.0486H10.0666H10.0846H10.1025H10.1205H10.1385H10.1565H10.1744H10.1924H10.2104H10.2283H10.2463H10.2643H10.2822H10.3002H10.3182H10.3362H10.3541H10.3721H10.3901H10.408H10.426H10.444H10.4619H10.4799H10.4979H10.5158H10.5338H10.5518H10.5698H10.5877H10.6057H10.6237H10.6416H10.6596H10.6776H10.6955H10.7135H10.7315H10.7495H10.7674H10.7854H10.8034H10.8213H10.8393H10.8573H10.8752H10.8932H10.9112H10.9292H10.9471H10.9651H10.9831H11.001H11.019H11.037H11.0549H11.0729H11.0909H11.1089H11.1268H11.1448H11.1628H11.1807H11.1987H11.2167H11.2346H11.2526H11.2706H11.2886H11.3065H11.3245H11.3425H11.3604H11.3784H11.3964H11.4143H11.4323H11.4503H11.4683H11.4862H11.5042H11.5222H11.5401H11.5581H11.5761H11.5941H11.612H11.63H11.648H11.6659H11.6839H11.7019H11.7198H11.7378H11.7558H11.7738H11.7917H11.8097H11.8277H11.8456H11.8636H11.8816H11.8995H11.9175H11.9355H11.9535H11.9714H11.9894H12.0074H12.0253H12.0433H12.0613H12.0792H12.0972H12.1152H12.1332H12.1511H12.1691H12.1871H12.205H12.223H12.241H12.2589H12.2769H12.2949H12.3129H12.3308H12.3488H12.3668H12.3847H12.4027H12.4207H12.4387H12.4566H12.4746H12.4926H12.5105H12.5285H12.5465H12.5644H12.5824H12.6004H12.6184H12.6363H12.6543H12.6723H12.6902H12.7082H12.7262H12.7442H12.7621H12.7801H12.7981H12.816H12.834H12.852H12.8699H12.8879H12.9059H12.9239H12.9418H12.9598H12.9778H12.9957H13.0137H13.0317H13.0497H13.0676H13.0856H13.1036H13.1215H13.1395H13.1575H13.1754H13.1934H13.2114H13.2294H13.2473H13.2653H13.2833H13.3012H13.3192H13.3372H13.3552H13.3731H13.3911H13.4091H13.427H13.445H13.463H13.4809H13.4989H13.5169H13.5349H13.5528H13.5708H13.5888H13.6067H13.6247H13.6427H13.6607H13.6786H13.6966H13.7146H13.7325H13.7505H13.7685H13.7865H13.8044H13.8224H13.8404H13.8583H13.8763H13.8943H13.9123H13.9302H13.9482H13.9662H13.9841H14.0017M3.50056 25.2409L14.0017 26.5862M15.7776 16.0074L15.7777 16.0074C18.1644 16.1253 20.2051 17.0925 21.8666 18.8257C23.2505 20.2687 24.0899 22.0002 24.3958 23.9839M15.7776 16.0074L23.9986 25.3433L24.4983 25.3267C24.4841 24.9001 24.4663 24.44 24.3958 23.9839M15.7776 16.0074C14.8666 15.9626 13.9482 15.9767 13.0492 15.9906M15.7776 16.0074L13.0492 15.9906M24.3958 23.9839L23.9017 24.0601L24.3958 23.9837C24.3958 23.9838 24.3958 23.9838 24.3958 23.9839ZM14.0017 26.5862C14.0018 26.5862 14.002 26.5862 14.0021 26.5862H14.0017ZM13.0492 15.9906C12.7767 15.9948 12.506 15.9989 12.2378 16.0014L13.0492 15.9906ZM23.2688 26.5862L23.2687 26.0862V26.5862H23.2688ZM12.2377 16.0014C11.8963 16.0045 11.5616 16.0509 11.2551 16.1024L12.2377 16.0014Z" fill="white" stroke="black"/>
<path d="M7.49951 9.00813C7.49674 12.6345 10.3924 15.6253 13.9628 15.6332H13.9628C17.5744 15.6411 20.4986 12.6804 20.502 9.03866C20.5054 5.39941 17.6045 2.41674 14.0158 2.41379C10.4204 2.41084 7.50239 5.37692 7.49951 9.00749V9.00789V9.00813ZM7.49951 9.00813C7.49951 9.00807 7.49951 9.00801 7.49951 9.00794L7.99951 9.00834M7.49951 9.00813V9.00834H7.99951M7.99951 9.00834V9.00789C8.00218 5.64661 10.703 2.91108 14.0154 2.91379C17.3181 2.9165 20.0051 5.66516 20.002 9.0382C19.9989 12.4094 17.2932 15.1404 13.9639 15.1332C10.6803 15.126 7.99685 12.3701 7.99951 9.00834Z" fill="white" stroke="black"/>
</svg>
